solid OpenSCAD_Model
  facet normal -1 0 0
    outer loop
      vertex 0 10 0
      vertex 0 0 1
      vertex 0 10 1
    endloop
  endfacet
  facet normal -1 0 0
    outer loop
      vertex 0 -1 8.84843
      vertex 0 0 9
      vertex 0 0 1
    endloop
  endfacet
  facet normal -1 -0 0
    outer loop
      vertex 0 0 9
      vertex 0 -1 8.84843
      vertex 0 -0.140394 9
    endloop
  endfacet
  facet normal -1 0 0
    outer loop
      vertex 0 -1 0
      vertex 0 0 1
      vertex 0 10 0
    endloop
  endfacet
  facet normal -1 0 0
    outer loop
      vertex 0 -1 8.84843
      vertex 0 0 1
      vertex 0 -1 0
    endloop
  endfacet
  facet normal -1 -0 0
    outer loop
      vertex 0 -0.140394 9
      vertex 0 -1 8.84843
      vertex 0 -0.227883 10
    endloop
  endfacet
  facet normal -1 0 0
    outer loop
      vertex 0 -15 7.39528
      vertex 0 -1 8.84843
      vertex 0 -14.8264 6.41047
    endloop
  endfacet
  facet normal -1 -0 0
    outer loop
      vertex 0 -1 8.84843
      vertex 0 -15 7.39528
      vertex 0 -0.227883 10
    endloop
  endfacet
  facet normal -1 -0 0
    outer loop
      vertex 0 -0.0542355 9.01519
      vertex 0 -0.140394 9
      vertex 0 -0.227883 10
    endloop
  endfacet
  facet normal 0 0 1
    outer loop
      vertex 28 10 1
      vertex 19 4 1
      vertex 28 0 1
    endloop
  endfacet
  facet normal 0 0 1
    outer loop
      vertex 28 10 1
      vertex 9 4 1
      vertex 19 4 1
    endloop
  endfacet
  facet normal -0 0 1
    outer loop
      vertex 0 10 1
      vertex 9 4 1
      vertex 28 10 1
    endloop
  endfacet
  facet normal 0 0 1
    outer loop
      vertex 0 0 1
      vertex 9 4 1
      vertex 0 10 1
    endloop
  endfacet
  facet normal 0 0 1
    outer loop
      vertex 9 4 1
      vertex 0 0 1
      vertex 9 0 1
    endloop
  endfacet
  facet normal 0 0 1
    outer loop
      vertex 28 0 1
      vertex 19 4 1
      vertex 19 0 1
    endloop
  endfacet
  facet normal 1 0 0
    outer loop
      vertex 28 -0.0542355 9.01519
      vertex 28 -0.227883 10
      vertex 28 -0.140394 9
    endloop
  endfacet
  facet normal 1 0 0
    outer loop
      vertex 28 -1 8.84843
      vertex 28 0 9
      vertex 28 -0.140394 9
    endloop
  endfacet
  facet normal 1 -0 0
    outer loop
      vertex 28 0 1
      vertex 28 10 0
      vertex 28 10 1
    endloop
  endfacet
  facet normal 1 0 0
    outer loop
      vertex 28 -1 8.84843
      vertex 28 -0.140394 9
      vertex 28 -0.227883 10
    endloop
  endfacet
  facet normal 1 0 0
    outer loop
      vertex 28 0 9
      vertex 28 -1 8.84843
      vertex 28 0 1
    endloop
  endfacet
  facet normal 1 0 0
    outer loop
      vertex 28 0 1
      vertex 28 -1 0
      vertex 28 10 0
    endloop
  endfacet
  facet normal 1 0 0
    outer loop
      vertex 28 -1 0
      vertex 28 0 1
      vertex 28 -1 8.84843
    endloop
  endfacet
  facet normal 1 0 0
    outer loop
      vertex 28 -15 7.39528
      vertex 28 -1 8.84843
      vertex 28 -0.227883 10
    endloop
  endfacet
  facet normal 1 0 0
    outer loop
      vertex 28 -1 8.84843
      vertex 28 -15 7.39528
      vertex 28 -14.8264 6.41047
    endloop
  endfacet
  facet normal 0 0 -1
    outer loop
      vertex 19 4 0
      vertex 28 -1 0
      vertex 19 0 0
    endloop
  endfacet
  facet normal 0 0 -1
    outer loop
      vertex 28 -1 0
      vertex 9 0 0
      vertex 19 0 0
    endloop
  endfacet
  facet normal -0 0 -1
    outer loop
      vertex 9 0 0
      vertex 0 -1 0
      vertex 9 4 0
    endloop
  endfacet
  facet normal 0 0 -1
    outer loop
      vertex 0 -1 0
      vertex 9 0 0
      vertex 28 -1 0
    endloop
  endfacet
  facet normal 0 0 -1
    outer loop
      vertex 28 -1 0
      vertex 19 4 0
      vertex 28 10 0
    endloop
  endfacet
  facet normal 0 0 -1
    outer loop
      vertex 9 4 0
      vertex 28 10 0
      vertex 19 4 0
    endloop
  endfacet
  facet normal 0 0 -1
    outer loop
      vertex 9 4 0
      vertex 0 10 0
      vertex 28 10 0
    endloop
  endfacet
  facet normal 0 0 -1
    outer loop
      vertex 0 10 0
      vertex 9 4 0
      vertex 0 -1 0
    endloop
  endfacet
  facet normal 0 1 -0
    outer loop
      vertex 19 0 0
      vertex 9 0 1
      vertex 19 0 1
    endloop
  endfacet
  facet normal 0 1 0
    outer loop
      vertex 9 0 1
      vertex 19 0 0
      vertex 9 0 0
    endloop
  endfacet
  facet normal 0 1 0
    outer loop
      vertex 19 0 1
      vertex 28 0 9
      vertex 28 0 1
    endloop
  endfacet
  facet normal 0 1 0
    outer loop
      vertex 28 0 9
      vertex 19 0 1
      vertex 0 0 9
    endloop
  endfacet
  facet normal 0 1 -0
    outer loop
      vertex 9 0 1
      vertex 0 0 9
      vertex 19 0 1
    endloop
  endfacet
  facet normal 0 1 0
    outer loop
      vertex 0 0 9
      vertex 9 0 1
      vertex 0 0 1
    endloop
  endfacet
  facet normal 0 1 -0
    outer loop
      vertex 28 10 0
      vertex 0 10 1
      vertex 28 10 1
    endloop
  endfacet
  facet normal 0 1 0
    outer loop
      vertex 0 10 1
      vertex 28 10 0
      vertex 0 10 0
    endloop
  endfacet
  facet normal 1 -0 0
    outer loop
      vertex 9 0 1
      vertex 9 4 0
      vertex 9 4 1
    endloop
  endfacet
  facet normal 1 0 0
    outer loop
      vertex 9 4 0
      vertex 9 0 1
      vertex 9 0 0
    endloop
  endfacet
  facet normal -1 0 0
    outer loop
      vertex 19 0 0
      vertex 19 4 1
      vertex 19 4 0
    endloop
  endfacet
  facet normal -1 -0 0
    outer loop
      vertex 19 4 1
      vertex 19 0 0
      vertex 19 0 1
    endloop
  endfacet
  facet normal 0 -1 0
    outer loop
      vertex 9 4 0
      vertex 19 4 1
      vertex 9 4 1
    endloop
  endfacet
  facet normal 0 -1 -0
    outer loop
      vertex 19 4 1
      vertex 9 4 0
      vertex 19 4 0
    endloop
  endfacet
  facet normal -0 0 1
    outer loop
      vertex 0 0 9
      vertex 28 -0.140394 9
      vertex 28 0 9
    endloop
  endfacet
  facet normal 0 0 1
    outer loop
      vertex 28 -0.140394 9
      vertex 0 0 9
      vertex 0 -0.140394 9
    endloop
  endfacet
  facet normal 0 -1 0
    outer loop
      vertex 0 -1 0
      vertex 28 -1 8.84843
      vertex 0 -1 8.84843
    endloop
  endfacet
  facet normal 0 -1 -0
    outer loop
      vertex 28 -1 8.84843
      vertex 0 -1 0
      vertex 28 -1 0
    endloop
  endfacet
  facet normal 0 0.173625 -0.984812
    outer loop
      vertex 0 -0.140394 9
      vertex 28 -0.0542355 9.01519
      vertex 28 -0.140394 9
    endloop
  endfacet
  facet normal 0 0.173625 -0.984812
    outer loop
      vertex 28 -0.0542355 9.01519
      vertex 0 -0.140394 9
      vertex 0 -0.0542355 9.01519
    endloop
  endfacet
  facet normal 0 0.173648 -0.984808
    outer loop
      vertex 0 -14.8264 6.41047
      vertex 28 -1 8.84843
      vertex 28 -14.8264 6.41047
    endloop
  endfacet
  facet normal 0 0.173648 -0.984808
    outer loop
      vertex 28 -1 8.84843
      vertex 0 -14.8264 6.41047
      vertex 0 -1 8.84843
    endloop
  endfacet
  facet normal 0 -0.984816 -0.173601
    outer loop
      vertex 0 -14.8264 6.41047
      vertex 28 -15 7.39528
      vertex 0 -15 7.39528
    endloop
  endfacet
  facet normal 0 -0.984816 -0.173601
    outer loop
      vertex 28 -15 7.39528
      vertex 0 -14.8264 6.41047
      vertex 28 -14.8264 6.41047
    endloop
  endfacet
  facet normal 0 -0.173648 0.984808
    outer loop
      vertex 0 -0.227883 10
      vertex 28 -15 7.39528
      vertex 28 -0.227883 10
    endloop
  endfacet
  facet normal 0 -0.173648 0.984808
    outer loop
      vertex 28 -15 7.39528
      vertex 0 -0.227883 10
      vertex 0 -15 7.39528
    endloop
  endfacet
  facet normal 0 0.984808 0.173647
    outer loop
      vertex 28 -0.0542355 9.01519
      vertex 0 -0.227883 10
      vertex 28 -0.227883 10
    endloop
  endfacet
  facet normal 0 0.984808 0.173647
    outer loop
      vertex 0 -0.227883 10
      vertex 28 -0.0542355 9.01519
      vertex 0 -0.0542355 9.01519
    endloop
  endfacet
endsolid OpenSCAD_Model
